<svg xmlns="http://www.w3.org/2000/svg" viewBox="0 0 720 520" role="img" aria-label="General Tso shrimp over rice">
  <defs>
    <linearGradient id="bg" x1="0" x2="1" y1="0" y2="1">
      <stop offset="0" stop-color="#fff7eb"/>
      <stop offset="1" stop-color="#e7d0b8"/>
    </linearGradient>
    <radialGradient id="plate" cx="50%" cy="46%" r="55%">
      <stop offset="0" stop-color="#fffdf8"/>
      <stop offset="0.68" stop-color="#f2ede5"/>
      <stop offset="1" stop-color="#d7c9bb"/>
    </radialGradient>
    <linearGradient id="sauce" x1="0" x2="1">
      <stop offset="0" stop-color="#ff7a26"/>
      <stop offset="0.45" stop-color="#d93618"/>
      <stop offset="1" stop-color="#8f1c12"/>
    </linearGradient>
    <filter id="shadow" x="-20%" y="-20%" width="140%" height="140%">
      <feDropShadow dx="0" dy="14" stdDeviation="18" flood-color="#5a1b10" flood-opacity=".22"/>
    </filter>
  </defs>
  <rect width="720" height="520" fill="url(#bg)"/>
  <ellipse cx="360" cy="276" rx="286" ry="202" fill="url(#plate)" filter="url(#shadow)"/>
  <ellipse cx="360" cy="286" rx="234" ry="154" fill="#fffaf2"/>
  <g fill="#f7f2e8" opacity=".95">
    <ellipse cx="258" cy="274" rx="108" ry="64"/>
    <ellipse cx="396" cy="248" rx="142" ry="76"/>
    <ellipse cx="411" cy="326" rx="132" ry="74"/>
  </g>
  <g fill="#ffffff" stroke="#ede3d6" stroke-width="2" opacity=".92">
    <path d="M187 291c28-20 63-27 108-18"/>
    <path d="M246 334c46-21 101-22 166-3"/>
    <path d="M298 240c42-13 91-12 148 5"/>
    <path d="M383 292c39-14 87-13 145 7"/>
  </g>
  <g fill="#57b45a">
    <path d="M156 285c74-55 137-68 189-40-80 26-139 42-189 40z"/>
    <path d="M427 232c78-17 129 0 154 52-77-3-127-17-154-52z"/>
    <path d="M439 346c79-35 137-28 174 19-78 17-132 14-174-19z"/>
    <path d="M206 366c54-49 106-62 156-39-58 24-110 37-156 39z"/>
  </g>
  <g fill="url(#sauce)" stroke="#8b180f" stroke-width="4">
    <ellipse cx="244" cy="252" rx="42" ry="36" transform="rotate(-16 244 252)"/>
    <ellipse cx="343" cy="222" rx="50" ry="38" transform="rotate(12 343 222)"/>
    <ellipse cx="453" cy="256" rx="46" ry="40" transform="rotate(-6 453 256)"/>
    <ellipse cx="300" cy="320" rx="52" ry="41" transform="rotate(15 300 320)"/>
    <ellipse cx="407" cy="332" rx="47" ry="39" transform="rotate(-13 407 332)"/>
    <ellipse cx="503" cy="346" rx="45" ry="37" transform="rotate(18 503 346)"/>
  </g>
  <g fill="#fff6d2" opacity=".95">
    <circle cx="229" cy="240" r="4"/><circle cx="268" cy="263" r="4"/><circle cx="334" cy="207" r="4"/>
    <circle cx="372" cy="238" r="4"/><circle cx="447" cy="245" r="4"/><circle cx="477" cy="275" r="4"/>
    <circle cx="287" cy="305" r="4"/><circle cx="329" cy="334" r="4"/><circle cx="390" cy="316" r="4"/>
    <circle cx="426" cy="348" r="4"/><circle cx="496" cy="330" r="4"/><circle cx="524" cy="358" r="4"/>
  </g>
  <g stroke="#2f8a40" stroke-width="9" stroke-linecap="round">
    <path d="M315 198c22 16 47 26 74 31"/>
    <path d="M460 300c26 16 55 25 86 27"/>
    <path d="M232 328c22 13 46 20 73 22"/>
  </g>
</svg>
